<?xml version="1.0" standalone="no"?>
<!DOCTYPE svg PUBLIC "-//W3C//DTD SVG 20010904//EN"
 "http://www.w3.org/TR/2001/REC-SVG-20010904/DTD/svg10.dtd">
<svg version="1.0" xmlns="http://www.w3.org/2000/svg"
 width="186.000000pt" height="198.000000pt" viewBox="0 0 186.000000 198.000000"
 preserveAspectRatio="xMidYMid meet">

<g transform="translate(0.000000,198.000000) scale(0.100000,-0.100000)"
fill="#000000" stroke="none">
<path d="M511 1728 c-19 -134 -37 -250 -40 -259 -5 -15 -31 -8 -196 50 -104
37 -192 66 -194 65 -2 -2 42 -109 98 -238 55 -128 101 -240 101 -247 0 -8 -63
-113 -139 -234 -77 -121 -138 -221 -138 -221 1 -1 76 12 165 28 90 16 166 27
169 24 3 -3 -6 -112 -21 -242 -14 -131 -24 -239 -22 -241 2 -2 74 42 161 97
86 56 162 99 168 97 7 -3 59 -94 117 -202 88 -166 106 -193 117 -180 6 9 58
106 114 216 57 109 107 199 112 199 5 0 88 -74 185 -165 97 -90 177 -163 179
-162 1 2 12 109 23 238 12 129 23 244 26 256 4 19 29 30 184 79 l179 57 -111
163 -111 163 35 53 c20 29 64 92 97 141 34 48 59 87 56 87 -3 0 -76 -16 -161
-35 -86 -20 -158 -34 -160 -33 -2 2 33 120 77 262 44 142 78 260 76 262 -2 3
-100 -50 -216 -117 -117 -67 -216 -118 -220 -113 -5 5 -23 74 -41 154 -18 80
-36 153 -39 162 -5 14 -37 -10 -160 -123 l-154 -141 -21 26 c-11 15 -73 91
-136 171 -63 79 -117 144 -120 144 -3 1 -21 -108 -39 -241z m506 -422 c3 -2 0
-20 -5 -40 -9 -32 -9 -35 6 -27 10 5 26 19 36 30 19 21 41 26 71 15 14 -6 11
-13 -19 -43 l-35 -36 18 -77 c10 -43 15 -78 11 -78 -4 0 -22 3 -39 6 -27 6
-33 13 -42 50 -9 34 -14 42 -24 34 -7 -6 -16 -22 -19 -36 -6 -23 -10 -25 -39
-19 -18 4 -33 8 -34 9 -3 3 34 177 43 210 5 14 12 17 37 12 17 -3 32 -8 34
-10z m-372 -107 c31 -55 55 -102 53 -104 -1 -2 -19 -6 -40 -10 -31 -6 -37 -4
-43 15 -4 14 -12 19 -22 16 -8 -3 -21 -6 -29 -6 -8 0 -14 -10 -14 -24 0 -22
-21 -35 -55 -36 -13 0 6 225 20 239 10 10 55 19 66 14 4 -1 32 -48 64 -104z
m774 102 c19 -12 -15 -64 -38 -56 -18 5 -49 -10 -39 -20 3 -4 23 -2 45 4 54
15 70 14 93 -9 23 -23 26 -76 7 -101 -20 -26 -80 -59 -108 -59 -14 0 -34 6
-44 14 -19 14 -19 15 -1 35 12 13 31 21 52 21 30 0 53 14 41 26 -2 3 -26 0
-51 -7 -78 -20 -124 21 -100 90 18 50 103 87 143 62z m-629 -86 l0 -85 45 0
c43 0 45 -1 45 -30 l0 -30 -80 0 -80 0 0 115 0 115 35 0 35 0 0 -85z m450 -30
l0 -115 -35 0 -35 0 0 115 0 115 35 0 35 0 0 -115z m-791 -192 c21 -5 22 -10
17 -45 l-6 -39 36 28 c36 27 68 31 88 12 8 -7 -16 -33 -57 -60 -5 -4 -4 -37 3
-83 7 -42 10 -79 7 -82 -2 -3 -21 1 -40 10 -31 12 -36 20 -39 53 -2 21 -7 37
-13 37 -9 -1 -28 -31 -37 -57 -2 -4 -18 -2 -36 4 -23 8 -31 16 -28 26 4 8 18
57 34 109 15 52 32 94 37 94 6 0 21 -3 34 -7z m781 -15 c-1 -7 -7 -24 -15 -38
-21 -36 -19 -41 30 -105 25 -32 42 -61 38 -65 -4 -4 -22 -10 -40 -13 -28 -6
-34 -2 -53 28 -26 42 -43 36 -38 -11 4 -32 2 -34 -29 -40 -19 -4 -35 -5 -37
-3 -4 5 -45 223 -42 226 1 1 18 4 37 5 32 3 34 1 37 -29 4 -38 18 -43 27 -10
13 42 35 67 60 67 14 0 25 -6 25 -12z m-460 -70 c13 -40 29 -92 36 -115 l13
-43 -39 0 c-30 0 -40 5 -45 20 -4 14 -15 20 -35 20 -19 0 -29 -6 -33 -20 -4
-15 -14 -20 -36 -20 -17 0 -31 3 -31 6 0 6 51 170 65 212 3 7 21 12 44 12 l39
0 22 -72z m160 -13 l0 -85 45 0 c43 0 45 -1 45 -30 l0 -30 -80 0 -80 0 0 115
0 115 35 0 35 0 0 -85z m452 -22 c15 -60 24 -111 20 -115 -4 -4 -20 -8 -36
-10 -32 -3 -26 -18 -81 199 -5 22 6 29 50 32 18 1 24 -13 47 -106z m219 77
c17 -16 28 -34 24 -40 -10 -16 -57 -12 -77 7 -13 12 -22 13 -29 6 -8 -8 2 -17
35 -31 131 -58 44 -193 -89 -138 -31 13 -55 41 -55 65 0 17 66 13 80 -4 13
-16 50 -21 50 -7 0 5 -18 17 -41 27 -50 23 -73 55 -64 87 14 44 35 58 87 58
42 0 54 -5 79 -30z"/>
<path d="M550 1190 c0 -11 7 -20 15 -20 13 0 14 4 5 20 -6 11 -13 20 -15 20
-3 0 -5 -9 -5 -20z"/>
<path d="M690 865 c0 -8 5 -15 10 -15 6 0 10 7 10 15 0 8 -4 15 -10 15 -5 0
-10 -7 -10 -15z"/>
</g>
</svg>
